HIERARCHY
ROOT Hips
{
  OFFSET 25.1695 91.2749 219.373
  CHANNELS 6 Xposition Yposition Zposition Zrotation Xrotation Yrotation
  JOINT LeftUpLeg
  {
    OFFSET 8.9458 -8.66707 0.101652
    CHANNELS 3 Zrotation Xrotation Yrotation
    JOINT LeftLeg
    {
      OFFSET 0 -44.4227 1.3727
      CHANNELS 3 Zrotation Xrotation Yrotation
      JOINT LeftFoot
      {
        OFFSET -0.253549 -42.0924 -1.46059
        CHANNELS 3 Zrotation Xrotation Yrotation
        JOINT LeftToes
        {
          OFFSET -0.04 -4.41509 8.4991
          CHANNELS 3 Zrotation Xrotation Yrotation
          End Site
          {
            OFFSET 0.08 -0.047448 9.77979
          }
        }
      }
    }
  }
  JOINT RightUpLeg
  {
    OFFSET -8.9458 -8.66707 0.101652
    CHANNELS 3 Zrotation Xrotation Yrotation
    JOINT RightLeg
    {
      OFFSET 0 -44.4227 1.3727
      CHANNELS 3 Zrotation Xrotation Yrotation
      JOINT RightFoot
      {
        OFFSET 0.253549 -42.0924 -1.46059
        CHANNELS 3 Zrotation Xrotation Yrotation
        JOINT RightToes
        {
          OFFSET 0.04 -4.41509 8.4991
          CHANNELS 3 Zrotation Xrotation Yrotation
          End Site
          {
            OFFSET -0.08 -0.137448 9.77979
          }
        }
      }
    }
  }
  JOINT Spine
  {
    OFFSET 0 11.8905 0
    CHANNELS 3 Zrotation Xrotation Yrotation
    JOINT Spine1
    {
      OFFSET 0 25.6574 0.127663
      CHANNELS 3 Zrotation Xrotation Yrotation
      JOINT HEad
      {
        OFFSET 0 8.73416 0.011341
        CHANNELS 3 Zrotation Xrotation Yrotation
        End Site
        {
          OFFSET -0.29 12.7742 2.51395
        }
      }
      JOINT LeftShoulder1
      {
        OFFSET 8.99 -0.362252 -0.22
        CHANNELS 3 Zrotation Xrotation Yrotation
        JOINT LeftArm
        {
          OFFSET 10.2827 -0.00338 0.322123
          CHANNELS 3 Zrotation Xrotation Yrotation
          JOINT LeftForeArm
          {
            OFFSET 32.7669 0.099144 -1.42434
            CHANNELS 3 Zrotation Xrotation Yrotation
            JOINT LeftHand
            {
              OFFSET 27.5643 0.085362 1.02216
              CHANNELS 3 Zrotation Xrotation Yrotation
              End Site
              {
                OFFSET 16.7443 -0.6 1.50291
              }
            }
          }
        }
      }
      JOINT RightShoulder
      {
        OFFSET -8.99 -0.362252 -0.22
        CHANNELS 3 Zrotation Xrotation Yrotation
        JOINT RightArm
        {
          OFFSET -10.2827 -0.00338 0.322123
          CHANNELS 3 Zrotation Xrotation Yrotation
          JOINT RightForeArm
          {
            OFFSET -32.8971 0.099144 -1.42434
            CHANNELS 3 Zrotation Xrotation Yrotation
            JOINT RightHand
            {
              OFFSET -27.4921 0.085362 1.02216
              CHANNELS 3 Zrotation Xrotation Yrotation
              End Site
              {
                OFFSET -16.6312 -0.6 1.50291
              }
            }
          }
        }
      }
    }
  }
}
MOTION
Frames:	19
Frame Time:	0.0166667
18.3444 92.1552 215.624 15.9872 -3.85224 78.7078 27.1209 -21.0993 -5.25852 -36.5165 33.8002 78.5963 -3.30677 6.43856 1.42404 -1.34027e-009 1.55988e-007 -4.84143e-009 -27.2401 28.7537 23.2429 16.0059 15.6699 -31.0519 -15.6526 1.85337 -4.83997 0.0462048 0.000533403 0.662642 -0.64524 24.9672 -2.04242 -0.00923026 0.03293 -0.0122398 1.49184 3.75587 14.6266 6.95746e-016 2.48481e-016 -3.18055e-015 -125.75 -59.3609 -103.255 -57.0409 57.4272 -52.9297 21.9307 13.9242 -22.0983 15.745 9.75674 -2.68636 108.992 -5.68601 75.3922 27.6935 55.8038 90.0986 22.6022 23.1332 -4.3488 
18.6901 93.0737 215.344 15.9142 -3.59204 78.501 24.6136 -21.2615 -7.35143 -33.5929 35.5653 78.0791 -6.01435 7.2261 1.99947 -1.34027e-009 1.55988e-007 -4.84144e-009 -26.4741 30.4421 22.0223 12.6668 12.1847 -29.8791 -10.0132 2.12196 -4.45815 0.0462048 0.000533403 0.662642 -2.05283 26.0282 -1.81817 -0.00862034 0.03268 -0.0158498 1.65606 3.00234 14.9813 2.08103e-016 7.7495e-016 -1.59028e-015 -131.822 -57.7806 -109.421 -61.9233 59.5273 -50.2333 23.1996 10.6317 -29.1044 13.7856 10.2967 -3.1609 109.78 -5.61035 77.348 26.3382 54.9484 90.427 26.6223 27.1011 -10.4556 
18.9771 93.9195 215.161 15.8462 -3.33048 78.2806 22.3385 -21.225 -9.37728 -30.9454 36.9374 77.6366 -8.62855 7.9844 2.59671 -1.34027e-009 1.55988e-007 -4.84144e-009 -25.0722 33.1959 20.042 7.88129 6.94642 -28.2347 -4.31184 3.44295 -4.03653 0.0462048 0.000533403 0.662642 -3.47565 27.0503 -1.57661 0.000449912 0.00148999 -0.00370001 1.78016 2.30458 15.3381 -8.94531e-016 -2.48481e-015 3.18055e-015 -138.769 -55.1935 -116.318 -69.6843 61.9212 -45.4145 23.9938 10.0063 -30.5389 12.293 10.4927 -3.57481 110.233 -5.70198 78.988 22.9824 54.6306 91.6141 26.6774 28.0341 -11.0756 
19.2081 94.783 215.086 15.8018 -2.98135 78.0463 22.0559 -20.8389 -10.6166 -33.5474 37.1027 80.1917 -11.0659 8.38546 2.58888 -1.34027e-009 1.55988e-007 -4.84144e-009 -21.2272 38.5051 15.341 -0.709057 -2.97975 -25.9403 1.34864 7.28427 -3.55258 0.0462048 0.000533403 0.662642 -4.87296 27.913 -1.39793 0.0073898 -0.00287001 -0.00791018 1.69184 1.69368 15.7541 7.95139e-016 1.39149e-015 3.18055e-015 -148.562 -49.9741 -125.429 -84.0418 63.8201 -31.6787 24.0965 13.0844 -24.6559 11.8727 9.61641 -3.56595 109.713 -6.21598 79.9119 13.2169 56.0075 96.5445 18.2441 21.8794 -0.457026 
19.3101 95.7478 215.146 15.8265 -2.49636 77.7817 21.6823 -21.2266 -11.361 -37.1105 38.1713 84.0105 -11.0731 9.34736 2.59041 -1.34027e-009 1.55988e-007 -4.84144e-009 -20.5627 37.7725 13.0795 -0.537651 -2.89766 -24.4127 5.01937 4.41259 -3.15273 0.0462048 0.000533403 0.662642 -6.31955 28.62 -1.2534 0.00976294 -0.00322126 -0.00835052 1.39389 1.20828 16.1766 -3.97569e-016 4.96962e-016 -3.18055e-015 -157.982 -42.5688 -133.46 -102.726 63.2249 -12.3518 24.8463 12.5136 -25.58 11.3056 8.83874 -3.60363 109.371 -6.16454 80.7171 7.45279 56.2191 99.4665 17.1083 20.3469 0.518341 
19.2185 96.7437 215.416 15.9788 -1.80874 77.4917 20.5558 -22.7572 -11.4198 -38.76 42.6188 89.0673 -14.7191 12.0845 3.57435 -1.34027e-009 1.55988e-007 -4.84143e-009 -18.3359 36.5808 10.3696 -0.338119 -2.90983 -22.8195 0.935456 1.96 -2.54175 0.0462048 0.000533403 0.662642 -7.90603 28.8042 -1.17252 0.0108151 -0.00129001 -0.00722056 0.865478 1.25215 16.6104 -7.95139e-016 -7.95139e-016 -3.18055e-015 -166.268 -34.1376 -139.27 -120.475 59.3693 6.82474 25.0864 14.1777 -22.0024 10.5911 8.59764 -3.63223 109.042 -5.60326 81.2756 4.08519 56.0388 101.196 14.7795 17.1747 4.49429 
18.9224 97.8131 215.843 16.9211 0.771264 76.8066 17.9245 -24.2924 -10.1636 -39.1545 46.836 92.3909 -17.5175 14.1197 4.95898 -1.34027e-009 1.55988e-007 -4.84144e-009 -22.9301 32.4277 11.4426 8.00306 2.26287 -22.1159 -6.55938 -4.59831 -2.75343 0.0462048 0.000533403 0.662642 -11.6673 28.7435 -0.679864 0.0107637 0.00347998 -0.0052261 -1.32609 1.69396 16.6586 3.97569e-016 -1.2921e-015 3.18055e-015 -171.099 -28.7193 -142.309 -129.349 55.3 16.4579 25.8521 13.8026 -22.4422 9.9092 8.84456 -3.60683 104.817 -2.34791 81.9783 1.02459 51.8836 101.329 15.5846 16.8237 3.84833 
18.4682 98.7179 216.404 18.6977 4.76533 75.6898 13.5186 -25.4033 -7.85657 -37.0625 51.2151 93.1509 -19.9344 15.7386 6.57441 -1.34027e-009 1.55988e-007 -4.84143e-009 -29.9997 30.2206 13.0966 16.0665 4.40716 -21.9024 -14.7451 -9.38142 -3.67763 0.0462048 0.000533403 0.662642 -17.0989 28.5371 0.214752 0.00982614 0.00851999 -0.00307293 -5.04288 2.5244 16.3422 3.97569e-016 9.93923e-016 -0 -173.785 -25.9751 -144.036 -133.15 52.5661 20.9687 25.9234 14.9497 -20.0605 9.26145 9.51583 -3.39562 98.2671 2.66596 82.4897 -2.66019 45.538 101.152 15.0559 15.3198 5.49164 
17.9983 99.4237 217.03 21.4699 9.73952 73.9921 6.65151 -25.2747 -5.09156 -29.1744 56.4272 87.2189 -24.1108 16.5248 8.66615 -1.34027e-009 1.55988e-007 -4.84143e-009 -37.4854 31.2226 13.9419 17.1186 3.36067 -19.71 -12.5943 -10.9808 -3.56572 0.0462048 0.000533403 0.662642 -23.7777 28.2964 1.60808 0.0082202 0.01421 -0.00146684 -8.66519 3.65183 16.2199 1.59028e-015 1.98785e-016 -3.18055e-015 -171.651 -28.1993 -143.738 -129.027 53.9238 17.5346 26.038 15.0952 -20.0074 8.47032 10.4976 -2.79294 93.9371 5.6697 83.1251 -0.404483 46.0579 98.1223 29.926 13.8584 8.01531 
17.5529 99.8155 217.704 24.0205 13.7531 72.2986 -0.0657291 -24.9818 -1.86998 -15.3359 60.6071 73.9619 -28.9511 16.4421 10.5297 -1.34027e-009 1.55988e-007 -4.84144e-009 -43.7881 32.3619 14.5372 16.9188 2.22191 -17.4703 -9.50022 -11.8985 -3.0864 0.0462048 0.000533403 0.662642 -29.0253 27.5704 2.70318 0.00616377 0.01891 -0.000463846 -12.262 5.00404 16.2895 3.31043e-032 5.96354e-016 -3.18055e-015 -166.453 -33.62 -141.799 -113.665 58.0073 7.90777 23.7784 14.0016 -21.9285 7.63144 11.6745 -1.93755 91.0645 7.6111 83.6153 1.33672 45.8398 95.9902 12.6325 18.9922 4.48685 
17.2077 99.9881 218.329 26.4218 16.9638 70.632 -5.13886 -25.3746 2.26439 -0.481102 64.1585 55.7944 -38.6999 14.6918 11.9737 -1.34026e-009 1.55988e-007 -4.84144e-009 -49.5228 33.1768 15.3558 17 1.45473 -15.5732 -6.33575 -12.7057 -2.51733 0.0462048 0.000533403 0.662642 -32.9041 26.5786 3.51665 0.00387463 0.02245 0.000390765 -15.909 6.49407 16.5307 3.18055e-015 5.96354e-016 3.18055e-015 -158.77 -40.9093 -137.657 -87.9417 60.3493 -10.0909 21.5524 21.4203 -11.1349 6.79524 12.9273 -0.922108 89.1464 12.7998 83.1834 -1.86757 45.2012 95.4044 22.8743 17.0736 5.74068 
16.9554 100.13 218.897 28.7888 19.5788 68.9664 -8.57998 -26.375 7.0394 18.0083 65.4733 31.9687 -50.5341 12.0532 12.9965 -1.34027e-009 1.55988e-007 -4.84144e-009 -54.942 33.588 16.5831 17.8018 1.09777 -14.1161 -3.49246 -13.5232 -1.91482 0.0462048 0.000533403 0.662642 -35.6499 25.4998 4.13284 0.0015706 0.0241577 0.00115732 -19.6055 8.05118 16.9204 1.59028e-015 -7.95139e-016 6.36111e-015 -147.948 -48.8175 -129.898 -58.3721 56.6537 -31.1142 16.3519 9.77891 -29.0001 5.84171 14.1812 0.222447 87.9055 15.9166 82.8251 -3.18515 44.5692 94.5228 13.4424 19.7928 4.54738 
16.6651 100.52 219.437 31.1881 21.6932 67.2989 -10.0349 -29.1851 12.8525 32.1004 62.5932 11.1374 -50.5024 11.2056 13.1583 -1.34026e-009 1.55988e-007 -4.84143e-009 -59.3919 33.9063 17.8037 18.0795 0.800289 -12.9862 -0.50629 -13.9554 -1.30369 0.0462048 0.000533403 0.662642 -37.4347 24.4654 4.60984 -0.00217943 0.0251452 0.00189613 -23.335 9.62683 17.4459 -1.19271e-015 1.39149e-015 -9.54166e-015 -132.176 -55.7725 -116.204 -35.6119 46.4331 -44.7086 12.8929 21.6696 -10.9769 4.80277 15.4164 1.36589 87.1192 17.9723 82.2733 -3.65073 44.3567 93.5366 27.7517 6.92476 18.0756 
16.2113 101.033 220 33.6531 23.4109 65.6254 -9.4077 -32.4569 19.654 39.871 57.6988 -0.321785 -50.4855 10.405 13.271 -1.34026e-009 1.55988e-007 -4.84143e-009 -62.7037 33.4385 19.4813 18.437 1.13883 -12.9258 2.0038 -14.0554 -0.784234 0.0462048 0.000533403 0.662642 -38.5038 23.5372 4.99079 -0.00859959 0.0256707 0.00266753 -27.0429 11.189 18.1002 -0 -2.98177e-016 -0 -110.13 -59.591 -94.8049 -21.2496 32.0172 -49.6811 8.09512 13.9426 -25.9171 3.42584 16.6599 2.49607 86.8359 19.4233 81.593 -3.52298 44.3747 92.2203 19.5214 12.5893 17.545 
15.5639 101.546 220.617 36.16 24.7719 63.9734 -6.31965 -35.686 27.4725 43.0582 52.1981 -5.70668 -49.9855 10.2954 13.376 -1.34027e-009 1.55988e-007 -4.84143e-009 -64.9503 32.396 21.3814 18.6675 2.19542 -13.66 4.25647 -13.8425 -0.359098 0.0462048 0.000533403 0.662642 -39.0351 22.754 5.26849 -0.0149205 0.0259923 0.00353183 -30.6737 12.7013 18.8908 3.97569e-016 -4.96962e-017 6.36111e-015 -86.0978 -57.7866 -69.7633 -12.2812 15.6302 -48.8858 4.00595 20.3363 -10.7869 1.89973 17.9349 3.44328 86.7602 20.6994 80.5556 -3.37174 44.9367 91.2438 25.3033 10.4802 14.8481 
14.7795 101.929 221.299 38.6528 25.7695 62.3906 -0.573945 -38.0672 36.0399 42.5421 46.238 -7.29581 -49.0122 10.5116 13.2359 -1.34027e-009 1.55988e-007 -4.84143e-009 -66.677 29.612 24.106 22.4964 5.02755 -16.2774 -1.83624 -14.562 -1.22812 0.0462048 0.000533403 0.662642 -39.1082 22.1463 5.43311 -0.0195902 0.0263682 0.00454936 -34.1684 14.1359 19.7973 2.48481e-017 -2.36057e-016 -6.36111e-015 -67.8392 -50.8213 -48.791 -7.79696 0.786073 -49.82 -2.47813 16.0291 -27.3611 0.374053 19.1362 4.41077 86.7647 21.6231 79.2095 -3.08638 45.6362 90.3887 20.0933 14.2214 14.3991 
14.1802 102.173 221.947 41.0592 26.3588 60.8899 7.16598 -38.9729 44.5742 38.9136 40.169 -6.16251 -46.2723 11.0752 12.6215 -1.34026e-009 1.55988e-007 -4.84145e-009 -67.1449 27.6086 26.1275 24.2052 7.90864 -18.7924 -6.62754 -14.7819 -2.06205 0.0462048 0.000533403 0.662642 -38.6457 21.6873 5.50481 -0.0183292 0.0270565 0.00578043 -37.4892 15.4771 20.7782 -2.20695e-032 -3.97569e-016 -3.18055e-015 -56.3885 -41.1621 -33.3638 -6.82384 -13.0105 -52.783 9.18347 22.8211 -6.57288 -0.582508 19.8869 5.42516 86.5944 22.1694 77.3281 -2.75214 46.4481 89.678 22.6265 13.7271 13.1179 
13.9332 102.308 222.513 44.6184 24.8261 58.6932 16.4263 -36.2117 51.6627 32.5127 33.909 -3.34704 -43.0722 11.544 11.7142 -1.34026e-009 1.55988e-007 -4.84143e-009 -67.3688 26.3268 30.1327 26.001 10.7919 -21.2233 -7.65074 -15.198 -2.07365 0.0462048 0.000533403 0.662642 -37.2555 22.665 6.94059 -0.0182498 0.02815 0.00759043 -39.1219 16.7832 21.3473 3.97569e-016 0 -0 -52.2586 -33.5224 -24.9354 -7.24208 -22.1272 -55.698 12.5412 21.0424 -25.4944 7.44163 14.0952 8.66011 82.0255 18.5505 67.4939 -1.95317 47.1085 88.6027 18.8019 16.6173 13.4927 
14.2194 102.348 222.902 47.659 23.1712 56.794 25.1377 -32.408 56.4098 24.6769 27.2145 -0.373319 -40.1787 11.8106 10.7814 -1.34027e-009 1.55988e-007 -4.84143e-009 -67.1417 25.8926 33.4173 26.1942 13.4857 -23.0147 -7.66093 -15.0851 -2.02533 0.0462048 0.000533403 0.662642 -33.9986 23.8221 7.75754 0.0867508 0.0382599 0.0312179 -40.4809 17.988 21.1276 2.38542e-015 -7.95139e-016 3.18055e-015 -52.2659 -28.3934 -19.976 -8.22784 -28.1327 -57.8036 8.51616 21.7659 -14.2495 14.8114 8.23403 10.9953 80.286 17.744 59.2145 1.72297 48.8332 86.7524 22.3608 16.5204 7.63543 
